<svg width="16" height="16" viewBox="0 0 16 16" fill="none" xmlns="http://www.w3.org/2000/svg">
<path d="M10.0003 4.99998L4.79402 10.2937C4.62166 10.484 4.52905 10.7332 4.53537 10.9898C4.54169 11.2464 4.64645 11.4908 4.82796 11.6723C5.00947 11.8538 5.25384 11.9586 5.51046 11.9649C5.76708 11.9712 6.0163 11.8786 6.20652 11.7062L12.4128 5.41248C12.7575 5.03203 12.9427 4.53359 12.9301 4.02035C12.9174 3.50712 12.7079 3.01839 12.3449 2.65537C11.9819 2.29234 11.4931 2.08282 10.9799 2.07019C10.4667 2.05755 9.96822 2.24276 9.58777 2.58748L3.38152 8.88123C2.81959 9.44316 2.50391 10.2053 2.50391 11C2.50391 11.7947 2.81959 12.5568 3.38152 13.1187C3.94345 13.6807 4.70559 13.9963 5.50027 13.9963C6.29496 13.9963 7.05709 13.6807 7.61902 13.1187L12.7503 7.99998" stroke="#E7E9EA" stroke-linecap="round" stroke-linejoin="round"/>
</svg>
